<svg t="1650719157959" class="icon" viewBox="0 0 1024 1024" version="1.1" xmlns="http://www.w3.org/2000/svg" p-id="2074" width="200" height="200"><path d="M0 0h1024v1024H0z" fill="#F26522" p-id="2075"></path><path d="M422.144 639.836h156.628v-42.612h-108.256v-66.028h99.812v-42.612h-99.812v-61.808h108.256V384.164h-156.628v255.672z m365.848-69.484c0-51.06-3.456-62.192-72.172-78.7-44.148-10.748-44.916-11.516-44.916-40.692 0-22.264 5.76-29.176 38.392-29.176 22.264 0 47.216 3.072 68.332 7.68l5.376-40.692c-25.34-5.76-52.212-8.448-74.48-8.448-64.876 0-85.988 23.036-85.988 69.484 0 54.132 8.444 66.032 70.252 79.852 46.068 9.98 46.836 12.28 46.836 40.692 0 24.568-5.76 31.864-40.696 31.864-25.336 0-48.368-4.608-72.168-11.904l-8.448 38.008c16.892 8.06 50.676 15.356 79.852 15.356 75.624 0 89.828-24.956 89.828-73.324z m89.064-95.204c0-39.16 18.812-46.84 64.108-46.84 8.064 0 24.956 1.156 36.088 3.46l3.072-39.16c-11.52-2.684-29.944-4.604-44.148-4.604-69.868 0-105.956 21.496-105.956 89.06v93.288c0 44.148 13.052 73.32 79.08 73.32 60.272 0 78.7-29.94 78.7-69.864v-18.428c0-44.148-18.812-63.344-65.26-63.344-16.508 0-32.248 2.304-45.684 6.912v-23.8z m38.388 57.2c16.892 0 25.72 5.76 25.72 24.184v18.812c0 19.576-7.68 28.024-31.86 28.024-24.188 0-32.248-6.912-32.248-28.024v-34.936c10.748-4.608 24.568-8.06 38.388-8.06z" fill="#FFFFFF" p-id="2076"></path></svg>
